<svg width="24" height="24" viewBox="0 0 24 24" fill="none" xmlns="http://www.w3.org/2000/svg">
<g clip-path="url(#clip0_1_15377)">
<mask id="mask0_1_15377" style="mask-type:luminance" maskUnits="userSpaceOnUse" x="1" y="0" width="35" height="35">
<path d="M35.0708 0.705872H1.18842V34.5882H35.0708V0.705872Z" fill="white"/>
</mask>
<g mask="url(#mask0_1_15377)">
<path d="M12.4825 23.2941C18.7201 23.2941 23.7767 18.2376 23.7767 12C23.7767 5.76242 18.7201 0.705872 12.4825 0.705872C6.24497 0.705872 1.18842 5.76242 1.18842 12C1.18842 18.2376 6.24497 23.2941 12.4825 23.2941Z" fill="#F0F0F0"/>
<path d="M23.7772 12C23.7772 7.5223 21.1714 3.65336 17.3935 1.82654V22.1734C21.1714 20.3466 23.7772 16.4777 23.7772 12Z" fill="#E12F4F"/>
<path d="M1.1886 12C1.1886 16.4777 3.79441 20.3466 7.57225 22.1734V1.82654C3.79441 3.65336 1.1886 7.5223 1.1886 12Z" fill="#E12F4F"/>
<path d="M14.4473 13.4731L16.4115 12.491L15.4293 12V11.0179L13.4652 12L14.4473 10.0357H13.4652L12.4831 8.56262L11.501 10.0357H10.5188L11.501 12L9.53675 11.0179V12L8.55469 12.491L10.5188 13.4731L10.0278 14.4552H11.992V15.9284H12.9741V14.4552H14.9383L14.4473 13.4731Z" fill="#E12F4F"/>
</g>
</g>
<defs>
<clipPath id="clip0_1_15377">
<rect width="24" height="24" fill="white"/>
</clipPath>
</defs>
</svg>
