<svg width="24" height="24" viewBox="0 0 24 24" fill="none" xmlns="http://www.w3.org/2000/svg">
<g clip-path="url(#clip0_30_66)">
<path d="M12 24C18.6274 24 24 18.6274 24 12C24 5.37258 18.6274 0 12 0C5.37258 0 0 5.37258 0 12C0 18.6274 5.37258 24 12 24Z" fill="#0052B4"/>
<path d="M12.0006 4.69568L12.3892 5.89141H13.6464L12.6292 6.6304L13.0178 7.82613L12.0006 7.0871L10.9835 7.82613L11.372 6.6304L10.3549 5.89141H11.6121L12.0006 4.69568Z" fill="#FFDA44"/>
<path d="M6.83523 6.83509L7.95554 7.40584L8.84453 6.51691L8.64779 7.75863L9.76806 8.32942L8.52629 8.52611L8.32961 9.76792L7.75881 8.64766L6.51709 8.84439L7.40607 7.95541L6.83523 6.83509Z" fill="#FFDA44"/>
<path d="M4.69629 12L5.89202 11.6115V10.3542L6.63096 11.3714L7.82674 10.9829L7.08766 12L7.82674 13.0171L6.63096 12.6286L5.89202 13.6458V12.3885L4.69629 12Z" fill="#FFDA44"/>
<path d="M6.83523 17.165L7.40603 16.0447L6.51709 15.1557L7.75886 15.3525L8.32956 14.2322L8.52629 15.474L9.76801 15.6707L8.64789 16.2415L8.84453 17.4832L7.95554 16.5942L6.83523 17.165Z" fill="#FFDA44"/>
<path d="M12.0006 19.3044L11.612 18.1086H10.3549L11.372 17.3697L10.9835 16.174L12.0006 16.9129L13.0178 16.174L12.6292 17.3697L13.6464 18.1086H12.3891L12.0006 19.3044Z" fill="#FFDA44"/>
<path d="M17.1654 17.165L16.0451 16.5942L15.1561 17.4832L15.3528 16.2414L14.2327 15.6707L15.4744 15.474L15.6711 14.2322L16.2418 15.3525L17.4835 15.1557L16.5946 16.0448L17.1654 17.165Z" fill="#FFDA44"/>
<path d="M19.3048 12L18.1091 12.3885V13.6458L17.3701 12.6286L16.1744 13.0171L16.9134 12L16.1744 10.9829L17.3701 11.3714L18.1091 10.3542V11.6115L19.3048 12Z" fill="#FFDA44"/>
<path d="M17.1654 6.83505L16.5946 7.95536L17.4836 8.84434L16.2418 8.64756L15.6711 9.76783L15.4744 8.52606L14.2327 8.32933L15.3528 7.75858L15.1561 6.51691L16.0452 7.40584L17.1654 6.83505Z" fill="#FFDA44"/>
</g>
<defs>
<clipPath id="clip0_30_66">
<rect width="24" height="24" fill="white"/>
</clipPath>
</defs>
</svg>
