<svg width="24" height="24" viewBox="0 0 24 24" fill="none" xmlns="http://www.w3.org/2000/svg">
<g clip-path="url(#clip0_30_143)">
<mask id="mask0_30_143" style="mask-type:luminance" maskUnits="userSpaceOnUse" x="0" y="0" width="24" height="24">
<path d="M23.9044 0.658325H0.864372V23.6983H23.9044V0.658325Z" fill="white"/>
</mask>
<g mask="url(#mask0_30_143)">
<path d="M12.3844 23.6983C18.7467 23.6983 23.9044 18.5406 23.9044 12.1783C23.9044 5.816 18.7467 0.658325 12.3844 0.658325C6.02205 0.658325 0.864372 5.816 0.864372 12.1783C0.864372 18.5406 6.02205 23.6983 12.3844 23.6983Z" fill="#F0F0F0"/>
<path d="M12.385 17.187C15.1511 17.187 17.3936 14.9445 17.3936 12.1783C17.3936 9.41208 15.1511 7.16962 12.385 7.16962C9.61872 7.16962 7.37624 9.41208 7.37624 12.1783C7.37624 14.9445 9.61872 17.187 12.385 17.187Z" fill="#E12F4F"/>
</g>
</g>
<defs>
<clipPath id="clip0_30_143">
<rect width="24" height="24" fill="white"/>
</clipPath>
</defs>
</svg>
